<svg width="240" height="208" viewBox="0 0 240 208" fill="none" xmlns="http://www.w3.org/2000/svg">
  <g stroke="#7A4F35" stroke-width="2" fill="none" opacity="1">
    <polygon points="30,10 50,10 60,27 50,44 30,44 20,27"/>
    <polygon points="70,10 90,10 100,27 90,44 70,44 60,27"/>
    <polygon points="110,10 130,10 140,27 130,44 110,44 100,27"/>
    <polygon points="50,44 70,44 80,61 70,78 50,78 40,61"/>
    <polygon points="90,44 110,44 120,61 110,78 90,78 80,61"/>
    <polygon points="130,44 150,44 160,61 150,78 130,78 120,61"/>
    <polygon points="30,78 50,78 60,95 50,112 30,112 20,95"/>
    <polygon points="70,78 90,78 100,95 90,112 70,112 60,95"/>
    <polygon points="110,78 130,78 140,95 130,112 110,112 100,95"/>
  </g>
</svg>
